<?xml version="1.0" encoding="utf-8"?>
<!-- Svg Vector Icons : http://www.onlinewebfonts.com/icon -->
<!DOCTYPE svg PUBLIC "-//W3C//DTD SVG 1.1//EN" "http://www.w3.org/Graphics/SVG/1.1/DTD/svg11.dtd">
<svg version="1.1" xmlns="http://www.w3.org/2000/svg" xmlns:xlink="http://www.w3.org/1999/xlink" x="0px" y="0px" viewBox="0 0 256 256" enable-background="new 0 0 256 256" xml:space="preserve">
<metadata> Svg Vector Icons : http://www.onlinewebfonts.com/icon </metadata>
<g><g><path fill="#000000" d="M68.7,230.2c18.2,10.5,38,15.7,59.5,15.7c21.2,0,41-5.2,59.2-15.7c17.9-10.7,32.2-24.8,43-43c10.4-17.9,15.7-37.7,15.7-59.2s-5.2-41.3-15.7-59.2c-10.7-18.2-25.1-32.5-43-43c-18.2-10.5-38-15.7-59.2-15.7c-21.5,0-41.3,5.2-59.5,15.7c-17.9,10.5-32.2,24.8-43,43C15.2,86.7,10,106.5,10,128s5.2,41.3,15.7,59.2C36.4,205.4,50.7,219.4,68.7,230.2L68.7,230.2z M58.5,58.3c8.8-8.5,19.3-15.7,31.4-20.9c12.1-5.2,24.8-7.7,38.3-7.7c13.2,0,25.9,2.5,38,7.7c12.1,5.2,22.6,12.4,31.4,20.9c8.8,8.8,16,19.3,21.2,31.4c5.2,12.1,7.7,24.8,7.7,38.3c0,13.2-2.5,26.2-7.7,38.3c-5.3,12.1-12.4,22.6-21.2,31.1c-8.8,8.8-19.3,16-31.4,21.2c-12.1,5.2-24.8,7.7-38,7.7c-13.5,0-26.2-2.5-38.3-7.7c-12.1-5.2-22.6-12.4-31.4-21.2c-8.8-8.5-16-19-21.2-31.1c-5.2-12.1-7.7-25.1-7.7-38.3c0-13.5,2.5-26.2,7.7-38.3C42.5,77.6,49.7,67.1,58.5,58.3L58.5,58.3z M88.8,108.2c5.2,0,9.9-1.9,13.8-5.8c3.9-3.9,5.8-8.5,5.8-14c0-5.2-1.9-9.9-5.8-13.8c-3.9-3.9-8.5-5.8-13.8-5.8c-5.5,0-10.2,1.9-14,5.8c-3.9,3.9-5.8,8.5-5.8,13.8c0,5.5,1.9,10.2,5.8,14C78.6,106.3,83.3,108.2,88.8,108.2L88.8,108.2z M92.9,185.6c10.5,7.4,22,11.3,35.3,11.3c12.9,0,24.5-3.9,35-11.3c10.2-7.7,17.3-17.6,21.2-30c0.8-2.5,0.6-5-0.6-7.4c-1.4-2.5-3.3-4.1-5.8-5c-2.5-0.8-5-0.6-7.4,0.6c-2.5,1.4-4.1,3.3-5,6.1c-2.8,8.3-7.4,14.9-14.3,19.8c-6.9,5.3-14.6,7.7-23.1,7.7c-8.8,0-16.5-2.5-23.4-7.7c-6.9-5-11.6-11.6-14.3-19.8c-0.8-2.7-2.5-4.7-4.7-6.1c-2.5-1.1-5-1.4-7.4-0.6c-2.8,0.8-4.7,2.5-6.1,5c-1.1,2.5-1.4,5-0.6,7.4C75.6,167.9,82.7,177.8,92.9,185.6L92.9,185.6z M167.5,108.2c5.3,0,9.9-1.9,13.8-5.8s5.8-8.5,5.8-14c0-5.2-1.9-9.9-5.8-13.8c-3.9-3.9-8.5-5.8-13.8-5.8c-5.5,0-10.2,1.9-14,5.8c-3.9,3.9-5.8,8.5-5.8,13.8c0,5.5,1.9,10.2,5.8,14S162,108.2,167.5,108.2L167.5,108.2z"/></g></g>
</svg>